<svg xmlns="http://www.w3.org/2000/svg" viewBox="0 0 63.26 65.9"><defs><style>.cls-1{fill:#e8a874;}.cls-2{fill:#772d07;}.cls-3,.cls-4{fill:#fff;}.cls-4{stroke:#fff;stroke-miterlimit:10;}</style></defs><title>Asset 2</title><g id="Layer_2" data-name="Layer 2"><g id="Layer_1-2" data-name="Layer 1"><path class="cls-1" d="M37,48.64a35.31,35.31,0,0,1-5.56-4.71A17.16,17.16,0,0,0,26,39.54a62,62,0,0,0-8.45-2.86,39.92,39.92,0,0,1-6-1.57,25.66,25.66,0,0,1-4.7-2.26c-.34.58-.68,1.21-1,1.88A28.56,28.56,0,0,0,3,42.44a21.8,21.8,0,0,0-.16,8.47C4.4,58.4,11.2,61.77,12.52,62.39c.86.55,10.54,6.6,19.59,1.44A18.21,18.21,0,0,0,37.54,59c.92-1.35,1.85-2.87,2.77-4.56.52-1,1-1.89,1.41-2.81A41.12,41.12,0,0,1,37,48.64Z"/><path class="cls-2" d="M60.62,46.72a35.33,35.33,0,0,0,1-24.12A35.63,35.63,0,0,0,44.47,2.53C41.2,1.29,30.77-2.2,19.18,2.05c-2.4.88-10.95,4.14-15.95,12.46A18.74,18.74,0,0,0,0,25.58a13.71,13.71,0,0,0,1.71,6.16C3.1,34.12,5,35.63,9.91,38.24c6.68,3.57,7.61,3.18,12.72,5.94,2.65,1.44,5.3,3.24,10.62,6.85,6.72,4.57,7.66,5.59,10.29,6,5,.7,9.11-1.89,10.32-2.65A17.45,17.45,0,0,0,60.62,46.72Z"/><circle class="cls-3" cx="26.55" cy="15.4" r="2.97"/><path class="cls-3" d="M33.06,27.37l8.63,5.07a1.47,1.47,0,0,1,.59,2.34A11.71,11.71,0,0,1,22.14,22.85a1.43,1.43,0,0,1,2.21-.6Z"/><path class="cls-4" d="M46.59,32.29a1.57,1.57,0,0,1-.31-.48c-.83-1.82-1.66-3.65-2.5-5.47-.1-.23-.1-.41.08-.53a.49.49,0,0,1,.25-.08l6.22-.49a.83.83,0,0,1,.82.47c.07.15.14.3.2.45a.35.35,0,0,1-.3.49h-.13l-5.06.4a.56.56,0,0,0-.16,0,.39.39,0,0,1,.08.1l2.13,4.66c.13.29.05.53-.22.57a1.87,1.87,0,0,1-.88,0Z"/></g></g></svg>