<?xml version="1.0" encoding="utf-8"?>
<!-- Generator: Adobe Illustrator 24.0.0, SVG Export Plug-In . SVG Version: 6.00 Build 0)  -->
<svg version="1.1" id="Layer_1" xmlns="http://www.w3.org/2000/svg" xmlns:xlink="http://www.w3.org/1999/xlink" x="0px" y="0px"
	 viewBox="0 0 150 150" style="enable-background:new 0 0 150 150;" xml:space="preserve">
<style type="text/css">
	.st0{fill:#E0D3C0;}
	.st1{fill:#E8A874;}
	.st2{fill:#772D07;}
	.st3{fill:#FFFFFF;}
	.st4{fill:#FFFFFF;stroke:#FFFFFF;stroke-miterlimit:10;}
</style>
<g>
	<circle class="st0" cx="75" cy="75" r="75"/>
	<g>
		<path class="st1" d="M83.7,100.4c-4.1-2.8-7.1-5.7-9-7.6c-3.3-3.9-6.6-6-8.8-7.1c-2.5-1.3-10.5-3.8-13.7-4.6c-4-1-5.9-1.1-9.7-2.5
			c-2.2-0.9-4.9-1.9-7.6-3.7c-0.6,0.9-1.1,2-1.7,3c-1.5,3-3.5,7.1-4.6,12.5c-0.4,1.9-1.5,7.8-0.3,13.7c2.6,12.1,13.6,17.6,15.7,18.6
			c1.4,0.9,17.1,10.7,31.7,2.3c3.9-2.2,6.7-5.1,8.8-7.9c1.5-2.2,3-4.6,4.5-7.4c0.8-1.6,1.6-3.1,2.3-4.5
			C88.7,103.9,86.2,102.2,83.7,100.4z"/>
		<path class="st2" d="M121.9,97.3c1.7-4.2,7.7-20.2,1.6-39.1C116.6,37,99.3,27.6,95.8,25.7c-5.3-2-22.2-7.7-41-0.8
			c-3.9,1.4-17.7,6.7-25.8,20.2c-2,3.3-5.7,9.6-5.2,17.9c0.1,1.9,0.4,5.9,2.8,10c2.2,3.8,5.3,6.3,13.2,10.5
			c10.8,5.8,12.3,5.1,20.6,9.6c4.3,2.3,8.6,5.2,17.2,11.1c10.9,7.4,12.4,9.1,16.7,9.7c8.1,1.1,14.8-3.1,16.7-4.3
			C117.4,105.6,120.7,100.2,121.9,97.3z"/>
		<circle class="st3" cx="66.8" cy="46.6" r="4.8"/>
		<path class="st3" d="M77.3,66c4.7,2.7,9.3,5.5,14,8.2c1.7,1,2,2.2,1,3.8c-5.7,9.2-18,11.7-26.9,5.6c-8.1-5.6-10.6-16.4-5.7-24.9
			c0.9-1.5,2.1-1.8,3.6-1C67.9,60.4,72.6,63.2,77.3,66z"/>
		<path class="st4" d="M99.2,73.9c-0.3-0.2-0.4-0.5-0.5-0.8c-1.3-3-2.7-5.9-4.1-8.9c-0.2-0.4-0.2-0.7,0.1-0.9
			c0.1-0.1,0.3-0.1,0.4-0.1c3.4-0.3,6.7-0.5,10.1-0.8c0.6,0,1.1,0.3,1.3,0.8c0.1,0.2,0.2,0.5,0.3,0.7c0.1,0.4-0.1,0.7-0.5,0.8
			c-0.1,0-0.1,0-0.2,0c-2.7,0.2-5.5,0.4-8.2,0.6c-0.1,0-0.1,0-0.3,0c0,0.1,0.1,0.1,0.1,0.2c1.2,2.5,2.3,5,3.5,7.6
			c0.2,0.5,0.1,0.9-0.4,0.9c-0.4,0.1-0.9,0.2-1.4,0C99.5,74.1,99.3,74,99.2,73.9z"/>
	</g>
</g>
</svg>
