<svg xmlns="http://www.w3.org/2000/svg" viewBox="0 0 258.8 139.31"><defs><style>.cls-1{fill:#772d07;}.cls-2{fill:#e29000;}.cls-3{fill:#a21c02;}.cls-4{fill:#ad4f1c;}.cls-5{fill:#e8a874;}.cls-6{fill:#e54c00;}.cls-7,.cls-8{fill:#fff;}.cls-8{stroke:#fff;stroke-miterlimit:10;}</style></defs><title>Asset 3</title><g id="Layer_2" data-name="Layer 2"><g id="Layer_1-2" data-name="Layer 1"><path class="cls-1" d="M62.56,61.92,45.87,60.58l1.22-20.34c.08-1.59.24-4,.5-7.16q.67-8.38,2-16.14L39.76,54.29,23.73,53,19.55,14.52Q19.69,26,19,34.17l-.3,3.7-2,20.36L0,56.88,8.72,0,29.6,1.68l3.59,37.6,8.9-36.59,21,1.69Z"/><path class="cls-1" d="M114.25,18.06,97.15,49.33l-.6,18.61-14.91-.49.59-18.53-15-32.38,16.29.53,6.79,20.8,8.2-20.32Z"/><path class="cls-2" d="M154.34,16.81l-6.66,9.44A22.76,22.76,0,0,0,142.86,24a12.06,12.06,0,0,0-4.83-.52,8.28,8.28,0,0,0-7,5q-2.23,4.55-1.49,13t3.79,12.42a8.52,8.52,0,0,0,8,3.52,11.47,11.47,0,0,0,4.87-1.54A28.58,28.58,0,0,0,151,52.08l7.84,8.31a27.19,27.19,0,0,1-7.46,6.15,23.73,23.73,0,0,1-9.8,3,27.82,27.82,0,0,1-14.24-2.1,22.39,22.39,0,0,1-10-9q-3.78-6.21-4.61-15.54a33.66,33.66,0,0,1,1.92-15.68A23.43,23.43,0,0,1,123,16.55a26.78,26.78,0,0,1,13.25-4.61A26.15,26.15,0,0,1,154.34,16.81Z"/><path class="cls-3" d="M195.19,11.68l-2.34,10.24L176.19,20.6,175.44,30l14.63,1.16-.79,10.07-14.63-1.16-.8,10.14,17.81,1.41-.82,10.43L158.1,59.47l4-50.41Z"/><path class="cls-4" d="M215.76,13.9l-3.63,37.42,18.3,1.78L227.9,64l-31.17-3,4.7-48.42Z"/><path class="cls-5" d="M246.4,9.86l4.69,51L236,62.24l-4.69-51Z"/><path class="cls-6" d="M52.1,70.22,48.88,83.44,35.12,82l-4.94,47.2-17.94-1.88,4.93-47.2L2.46,78.59l1.4-13.41Z"/><path class="cls-6" d="M87.43,82.74,75.37,117.57,78,136.65l-15.3,2.07-2.57-19L39.18,89.28,55.88,87l10.51,20,4.86-22.13Z"/><path class="cls-6" d="M134.15,81.52q6.94,5.19,6.94,15.24,0,10.38-6.59,15.89t-17.77,5.5h-5.94V137.1h-18V76.32h21.92Q127.22,76.32,134.15,81.52ZM122.76,96.76q0-8-8.3-8h-3.67v16.68H115Q122.75,105.49,122.76,96.76Z"/><path class="cls-6" d="M187.19,78.84l-3,12.26-20-1.89-1.07,11.3,17.56,1.66-1.15,12.09L162,112.59l-1.15,12.17,21.38,2L181,139.31l-39.3-3.73,5.74-60.5Z"/><path class="cls-5" d="M232.52,121.52a35.31,35.31,0,0,1-5.56-4.71,17.16,17.16,0,0,0-5.45-4.39,62,62,0,0,0-8.45-2.86,39.92,39.92,0,0,1-6-1.57,25,25,0,0,1-4.7-2.26c-.34.58-.68,1.21-1,1.88a28.56,28.56,0,0,0-2.86,7.71,21.8,21.8,0,0,0-.16,8.47c1.59,7.5,8.39,10.86,9.71,11.48.86.55,10.54,6.6,19.59,1.44a18.21,18.21,0,0,0,5.43-4.86c.92-1.35,1.85-2.87,2.77-4.56.52-1,1-1.89,1.41-2.81A41.12,41.12,0,0,1,232.52,121.52Z"/><path class="cls-1" d="M256.16,119.6A34.67,34.67,0,0,0,240,75.41c-3.27-1.24-13.7-4.73-25.29-.48-2.4.88-10.95,4.14-15.95,12.46a18.74,18.74,0,0,0-3.2,11.07,13.71,13.71,0,0,0,1.71,6.16c1.36,2.38,3.29,3.89,8.17,6.5,6.68,3.57,7.61,3.18,12.72,5.95,2.65,1.43,5.3,3.23,10.62,6.84,6.72,4.57,7.66,5.59,10.29,6,5,.7,9.11-1.89,10.32-2.65A17.45,17.45,0,0,0,256.16,119.6Z"/><circle class="cls-7" cx="222.09" cy="88.28" r="2.97"/><path class="cls-7" d="M228.6,100.25l8.63,5.07a1.47,1.47,0,0,1,.59,2.34,11.71,11.71,0,0,1-20.14-11.93,1.43,1.43,0,0,1,2.21-.6Z"/><path class="cls-8" d="M242.13,105.17a1.57,1.57,0,0,1-.31-.48c-.83-1.82-1.66-3.65-2.5-5.47-.1-.23-.1-.41.08-.53a.61.61,0,0,1,.25-.08l6.22-.49a.83.83,0,0,1,.82.47c.07.15.14.3.2.45a.35.35,0,0,1-.3.49h-.13l-5.06.4a.56.56,0,0,0-.16,0,.39.39,0,0,1,.08.1l2.13,4.66c.13.29.05.53-.22.57a1.87,1.87,0,0,1-.88,0Z"/></g></g></svg>